<!-- Product info icons sprite (24x24, stroke, currentColor) -->
<svg xmlns="http://www.w3.org/2000/svg">
  <!-- Kwaliteitsclassificatie: badge + ster -->
  <symbol id="icon-kwaliteitsclassificatie" viewBox="0 0 24 24">
	<g fill="none" stroke="currentColor" stroke-width="1.8" stroke-linecap="round" stroke-linejoin="round">
	  <path d="M12 2l2.2 2.6 3.4.6-2.2 2.6.4 3.4L12 10.4 8.2 11.2l.4-3.4-2.2-2.6 3.4-.6L12 2z"/>
	  <path d="M7 14.5l-1 5.5 6-2 6 2-1-5.5"/>
	</g>
  </symbol>

  <!-- Materiaal: lagen -->
  <symbol id="icon-materiaal" viewBox="0 0 24 24">
	<g fill="none" stroke="currentColor" stroke-width="1.8" stroke-linecap="round" stroke-linejoin="round">
	  <path d="M12 3l8 4-8 4-8-4 8-4z"/>
	  <path d="M20 11l-8 4-8-4"/>
	  <path d="M20 15l-8 4-8-4"/>
	</g>
  </symbol>

  <!-- Afwerking: glans/sparkles -->
  <symbol id="icon-afwerking" viewBox="0 0 24 24">
	<g fill="none" stroke="currentColor" stroke-width="1.8" stroke-linecap="round" stroke-linejoin="round">
	  <path d="M12 4l1.8 3.2L17 9l-3.2 1.8L12 14l-1.8-3.2L7 9l3.2-1.8L12 4z"/>
	  <path d="M18.5 5.5l.9 1.6 1.6.9-1.6.9-.9 1.6-.9-1.6-1.6-.9 1.6-.9.9-1.6z"/>
	  <path d="M5.5 14l.7 1.2 1.2.7-1.2.7-.7 1.2-.7-1.2-1.2-.7 1.2-.7.7-1.2z"/>
	</g>
  </symbol>

  <!-- Garantie: schild + check -->
  <symbol id="icon-garantie" viewBox="0 0 24 24">
	<g fill="none" stroke="currentColor" stroke-width="1.8" stroke-linecap="round" stroke-linejoin="round">
	  <path d="M12 3l7 3v5c0 4.5-3.5 7.8-7 10-3.5-2.2-7-5.5-7-10V6l7-3z"/>
	  <path d="M9 12l2 2 4-4"/>
	</g>
  </symbol>

  <!-- Bevestiging: bout + moer -->
  <symbol id="icon-bevestiging" viewBox="0 0 24 24">
	<g fill="none" stroke="currentColor" stroke-width="1.8" stroke-linecap="round" stroke-linejoin="round">
	  <path d="M4 7l4-2 4 2v4l-4 2-4-2V7z"/>
	  <circle cx="8" cy="9" r="1.6"/>
	  <path d="M14 7l6 0M14 11h6M14 15h6"/>
	</g>
  </symbol>

  <!-- Opmeten: liniaal -->
  <symbol id="icon-opmeten" viewBox="0 0 24 24">
	<g fill="none" stroke="currentColor" stroke-width="1.8" stroke-linecap="round" stroke-linejoin="round">
	  <rect x="3" y="7" width="18" height="6" rx="1.5"/>
	  <path d="M7 7v6M10 7v3M13 7v6M16 7v3M19 7v6"/>
	</g>
  </symbol>

  <!-- Onderhoud: sleutel + tandwiel -->
  <symbol id="icon-onderhoud" viewBox="0 0 24 24">
	<g fill="none" stroke="currentColor" stroke-width="1.8" stroke-linecap="round" stroke-linejoin="round">
	  <path d="M9 16l-4 4M10.5 14.5a3.5 3.5 0 11-5-5l2 2 2-2a3.5 3.5 0 011 5z"/>
	  <circle cx="17" cy="7" r="2.2"/>
	  <path d="M17 3.8v-1M17 11.2v1M20.2 7h1M12.8 7h-1M19 5l.7-.7M15 9l-.7.7M19 9l.7.7M15 5l-.7-.7"/>
	</g>
  </symbol>

  <!-- Productie: fabriek -->
  <symbol id="icon-productie" viewBox="0 0 24 24">
	<g fill="none" stroke="currentColor" stroke-width="1.8" stroke-linecap="round" stroke-linejoin="round">
	  <path d="M3 20h18v-7l-5-3-4 3V8l-4 3V5h-3v15z"/>
	  <path d="M8 20v-3h3v3M13 20v-3h3v3"/>
	  <path d="M16 5h3v5"/>
	</g>
  </symbol>

  <!-- Verzending: truck -->
  <symbol id="icon-verzending" viewBox="0 0 24 24">
	<g fill="none" stroke="currentColor" stroke-width="1.8" stroke-linecap="round" stroke-linejoin="round">
	  <path d="M3 7h10v7H3z"/>
	  <path d="M13 9h4l3 3v2h-7"/>
	  <circle cx="7" cy="17" r="2"/>
	  <circle cx="17" cy="17" r="2"/>
	  <path d="M5 17h2M15 17h2"/>
	</g>
  </symbol>

  <!-- Leeftijdsverificatie: schild + 18 -->
  <symbol id="icon-leeftijdsverificatie" viewBox="0 0 24 24">
	<g fill="none" stroke="currentColor" stroke-width="1.8" stroke-linecap="round" stroke-linejoin="round">
	  <path d="M12 3l7 3v5c0 4.5-3.5 7.8-7 10-3.5-2.2-7-5.5-7-10V6l7-3z"/>
	  <path d="M9.5 10.5v4"/>
	  <circle cx="14.5" cy="12.5" r="2"/>
	</g>
  </symbol>

  <!-- Verpakkingsinformatie: doos -->
  <symbol id="icon-verpakkingsinformatie" viewBox="0 0 24 24">
	<g fill="none" stroke="currentColor" stroke-width="1.8" stroke-linecap="round" stroke-linejoin="round">
	  <path d="M12 3l9 4.5-9 4.5L3 7.5 12 3z"/>
	  <path d="M21 7.5v8L12 20.5 3 15.5v-8"/>
	  <path d="M12 12v8"/>
	  <path d="M12 7.5l-4.5 2.2M12 7.5l4.5 2.2"/>
	</g>
  </symbol>
</svg>