<svg xmlns="http://www.w3.org/2000/svg" style="display:none">
  <!-- Dawn Theme Icon Sprite - Celtic Webmerchant -->
  
  <!-- UI Icons -->
  <symbol id="icon-3d-model" viewBox="0 0 18 21"><path fill="currentColor" d="m7.68 20.629-6.4-3.906A2.71 2.71 0 0 1 0 14.405v-7.81a2.72 2.72 0 0 1 1.278-2.318l6.4-3.9a2.52 2.52 0 0 1 2.644-.003l6.4 3.9A2.72 2.72 0 0 1 18 6.6v7.809a2.71 2.71 0 0 1-1.279 2.318l-6.4 3.906A2.54 2.54 0 0 1 9 21a2.54 2.54 0 0 1-1.32-.371M8.724 2.078l-6.4 3.9a.71.71 0 0 0-.321.612v7.81a.71.71 0 0 0 .32.61L8 18.48v-7.561a1.77 1.77 0 0 1 .934-1.555l6.512-3.523L9.28 2.08a.52.52 0 0 0-.556-.002"/></symbol>

  <symbol id="icon-account" viewBox="0 0 18 19"><path fill="currentColor" fill-rule="evenodd" d="M6 4.5a3 3 0 1 1 6 0 3 3 0 0 1-6 0m3-4a4 4 0 1 0 0 8 4 4 0 0 0 0-8m5.58 12.15c1.12.82 1.83 2.24 1.91 4.85H1.51c.08-2.6.79-4.03 1.9-4.85C4.66 11.75 6.5 11.5 9 11.5s4.35.26 5.58 1.15M9 10.5c-2.5 0-4.65.24-6.17 1.35C1.27 12.98.5 14.93.5 18v.5h17V18c0-3.07-.77-5.02-2.33-6.15-1.52-1.1-3.67-1.35-6.17-1.35" clip-rule="evenodd"/></symbol>

  <symbol id="icon-arrow" viewBox="0 0 14 10"><path fill="currentColor" fill-rule="evenodd" d="M8.537.808a.5.5 0 0 1 .817-.162l4 4a.5.5 0 0 1 0 .708l-4 4a.5.5 0 1 1-.708-.708L11.793 5.5H1a.5.5 0 0 1 0-1h10.793L8.646 1.354a.5.5 0 0 1-.109-.546" clip-rule="evenodd"/></symbol>

  <symbol id="icon-caret" viewBox="0 0 10 6"><path fill="currentColor" fill-rule="evenodd" d="M9.354.646a.5.5 0 0 0-.708 0L5 4.293 1.354.646a.5.5 0 0 0-.708.708l4 4a.5.5 0 0 0 .708 0l4-4a.5.5 0 0 0 0-.708" clip-rule="evenodd"/></symbol>

  <symbol id="icon-cart" viewBox="0 0 40 40"><path fill="currentColor" fill-rule="evenodd" d="M20.5 6.5a4.75 4.75 0 0 0-4.75 4.75v.56h-3.16l-.77 11.6a5 5 0 0 0 4.99 5.34h7.38a5 5 0 0 0 4.99-5.33l-.77-11.6h-3.16v-.57A4.75 4.75 0 0 0 20.5 6.5m3.75 5.31v-.56a3.75 3.75 0 1 0-7.5 0v.56zm-7.5 1h7.5v.56a3.75 3.75 0 1 1-7.5 0zm-1 0v.56a4.75 4.75 0 1 0 9.5 0v-.56h2.22l.71 10.67a4 4 0 0 1-3.99 4.27h-7.38a4 4 0 0 1-4-4.27l.72-10.67z"/></symbol>

  <symbol id="icon-cart-empty" viewBox="0 0 40 40"><path fill="currentColor" fill-rule="evenodd" d="M15.75 11.8h-3.16l-.77 11.6a5 5 0 0 0 4.99 5.34h7.38a5 5 0 0 0 4.99-5.33L28.4 11.8zm0 1h-2.22l-.71 10.67a4 4 0 0 0 3.99 4.27h7.38a4 4 0 0 0 4-4.27l-.72-10.67h-2.22v.63a4.75 4.75 0 1 1-9.5 0zm8.5 0h-7.5v.63a3.75 3.75 0 1 0 7.5 0z"/></symbol>

  <symbol id="icon-checkmark" viewBox="0 0 12 9"><path fill="currentColor" fill-rule="evenodd" d="M11.35.643a.5.5 0 0 1 .006.707l-6.77 6.886a.5.5 0 0 1-.719-.006L.638 4.845a.5.5 0 1 1 .724-.69l2.872 3.011 6.41-6.517a.5.5 0 0 1 .707-.006z" clip-rule="evenodd"/></symbol>

  <symbol id="icon-close" viewBox="0 0 18 17"><path fill="currentColor" d="M.865 15.978a.5.5 0 0 0 .707.707l7.433-7.431 7.579 7.282a.501.501 0 0 0 .846-.37.5.5 0 0 0-.153-.351L9.712 8.546l7.417-7.416a.5.5 0 1 0-.707-.708L8.991 7.853 1.413.573a.5.5 0 1 0-.693.72l7.563 7.268z"/></symbol>

  <symbol id="icon-close-small" viewBox="0 0 12 13"><path stroke="currentColor" stroke-linecap="round" stroke-linejoin="round" fill="none" d="M8.486 9.33 2.828 3.67M2.885 9.385l5.544-5.77"/></symbol>

  <symbol id="icon-discount" viewBox="0 0 12 12"><path fill="currentColor" fill-rule="evenodd" d="M7 0h3a2 2 0 0 1 2 2v3a1 1 0 0 1-.3.7l-6 6a1 1 0 0 1-1.4 0l-4-4a1 1 0 0 1 0-1.4l6-6A1 1 0 0 1 7 0m2 2a1 1 0 1 0 2 0 1 1 0 0 0-2 0" clip-rule="evenodd"/></symbol>

  <symbol id="icon-error" viewBox="0 0 13 13"><circle cx="6.5" cy="6.5" r="5.5" fill="#EB001B" stroke="#EB001B" stroke-width=".7"/><path fill="#fff" d="m5.874 3.528.1 4.044h1.053l.1-4.044zm.627 6.133c.38 0 .68-.288.68-.656s-.3-.656-.68-.656-.681.288-.681.656.3.656.68.656"/></symbol>

  <symbol id="icon-filter" viewBox="0 0 20 20"><path fill="currentColor" fill-rule="evenodd" d="M4.833 6.5a1.667 1.667 0 1 1 3.334 0 1.667 1.667 0 0 1-3.334 0M4.05 7H2.5a.5.5 0 0 1 0-1h1.55a2.5 2.5 0 0 1 4.9 0h8.55a.5.5 0 0 1 0 1H8.95a2.5 2.5 0 0 1-4.9 0m11.117 6.5a1.667 1.667 0 1 0-3.334 0 1.667 1.667 0 0 0 3.334 0M13.5 11a2.5 2.5 0 0 1 2.45 2h1.55a.5.5 0 0 1 0 1h-1.55a2.5 2.5 0 0 1-4.9 0H2.5a.5.5 0 0 1 0-1h8.55a2.5 2.5 0 0 1 2.45-2"/></symbol>

  <symbol id="icon-hamburger" viewBox="0 0 18 16"><path fill="currentColor" d="M1 .5a.5.5 0 1 0 0 1h15.71a.5.5 0 0 0 0-1zM.5 8a.5.5 0 0 1 .5-.5h15.71a.5.5 0 0 1 0 1H1A.5.5 0 0 1 .5 8m0 7a.5.5 0 0 1 .5-.5h15.71a.5.5 0 0 1 0 1H1a.5.5 0 0 1-.5-.5"/></symbol>

  <symbol id="icon-heart" viewBox="0 0 20 20"><path fill-rule="evenodd" d="M10 5.24 8.515 3.773a4.433 4.433 0 0 0-6.21 0 4.293 4.293 0 0 0 0 6.128L10 17.495l7.695-7.593a4.293 4.293 0 0 0 0-6.128 4.433 4.433 0 0 0-6.21 0zm.765-2.177c2.113-2.084 5.538-2.084 7.65 0a5.29 5.29 0 0 1 0 7.55l-7.695 7.593a1.03 1.03 0 0 1-1.44 0l-7.696-7.594a5.29 5.29 0 0 1 0-7.549C3.697.98 7.122.98 9.234 3.063l.766.755z"/></symbol>

  <symbol id="icon-lock" viewBox="0 0 20 20"><path fill-rule="evenodd" d="M16.5 7.118h-13V19h13zm-13-1a1 1 0 0 0-1 1V19a1 1 0 0 0 1 1h13a1 1 0 0 0 1-1V7.118a1 1 0 0 0-1-1z"/><path d="M11.443 11.92c0 .82-.646 1.486-1.443 1.486s-1.443-.665-1.443-1.486c0-.82.646-1.486 1.443-1.486s1.443.665 1.443 1.486"/><path d="M10.019 11.92c.345 0 .625.28.625.625v3.152a.625.625 0 1 1-1.25 0v-3.152c0-.345.28-.625.625-.625M6.242 3.76a3.759 3.759 0 1 1 7.516 0v2.36h-1V3.76a2.759 2.759 0 1 0-5.516 0v2.36h-1z"/></symbol>

  <symbol id="icon-minus" viewBox="0 0 10 2"><path fill="currentColor" fill-rule="evenodd" d="M.5 1C.5.7.7.5 1 .5h8a.5.5 0 1 1 0 1H1A.5.5 0 0 1 .5 1" clip-rule="evenodd"/></symbol>

  <symbol id="icon-pause" viewBox="0 0 8 12"><path fill="currentColor" d="M1.2.75c-.387 0-.7.235-.7.525v9.45c0 .29.313.525.7.525s.7-.235.7-.525v-9.45c0-.29-.313-.525-.7-.525m5.6 0c-.387 0-.7.235-.7.525v9.45c0 .29.313.525.7.525s.7-.235.7-.525v-9.45c0-.29-.313-.525-.7-.525"/></symbol>

  <symbol id="icon-play" viewBox="0 0 10 14"><path fill="currentColor" fill-rule="evenodd" d="M1.482.815A1 1 0 0 0 0 1.69v10.517a1 1 0 0 0 1.525.851L10.54 7.5a1 1 0 0 0-.043-1.728z" clip-rule="evenodd"/></symbol>

  <symbol id="icon-plus" viewBox="0 0 10 10"><path fill="currentColor" fill-rule="evenodd" d="M1 4.51a.5.5 0 0 0 0 1h3.5l.01 3.5a.5.5 0 0 0 1-.01V5.5l3.5-.01a.5.5 0 0 0-.01-1H5.5L5.49.99a.5.5 0 0 0-1 .01v3.5l-3.5.01z" clip-rule="evenodd"/></symbol>

  <symbol id="icon-remove" viewBox="0 0 16 16"><path fill="currentColor" d="M14 3h-3.53a3.07 3.07 0 0 0-.6-1.65C9.44.82 8.8.5 8 .5s-1.44.32-1.87.85A3.06 3.06 0 0 0 5.53 3H2a.5.5 0 0 0 0 1h1.25v10c0 .28.22.5.5.5h8.5a.5.5 0 0 0 .5-.5V4H14a.5.5 0 0 0 0-1M6.91 1.98c.23-.29.58-.48 1.09-.48s.85.19 1.09.48c.2.24.3.6.36 1.02h-2.9c.05-.42.17-.78.36-1.02m4.84 11.52h-7.5V4h7.5z"/><path fill="currentColor" d="M6.55 5.25a.5.5 0 0 0-.5.5v6a.5.5 0 0 0 1 0v-6a.5.5 0 0 0-.5-.5m2.9 0a.5.5 0 0 0-.5.5v6a.5.5 0 0 0 1 0v-6a.5.5 0 0 0-.5-.5"/></symbol>

  <symbol id="icon-search" viewBox="0 0 18 19"><path fill="currentColor" fill-rule="evenodd" d="M11.03 11.68A5.784 5.784 0 1 1 2.85 3.5a5.784 5.784 0 0 1 8.18 8.18m.26 1.12a6.78 6.78 0 1 1 .72-.7l5.4 5.4a.5.5 0 1 1-.71.7z" clip-rule="evenodd"/></symbol>

  <symbol id="icon-share" viewBox="0 0 13 12"><path stroke="currentColor" stroke-linecap="round" stroke-linejoin="round" fill="none" d="M1.625 8.125v2.167a1.083 1.083 0 0 0 1.083 1.083h7.584a1.083 1.083 0 0 0 1.083-1.083V8.125"/><path fill="currentColor" fill-rule="evenodd" d="M6.148 1.271a.5.5 0 0 1 .707 0L9.563 3.98a.5.5 0 0 1-.707.707L6.501 2.332 4.147 4.687a.5.5 0 1 1-.708-.707z" clip-rule="evenodd"/><path fill="currentColor" fill-rule="evenodd" d="M6.5 1.125a.5.5 0 0 1 .5.5v6.5a.5.5 0 0 1-1 0v-6.5a.5.5 0 0 1 .5-.5" clip-rule="evenodd"/></symbol>

  <symbol id="icon-zoom" viewBox="0 0 19 19"><path fill="currentColor" fill-rule="evenodd" d="M4.667 7.94a.5.5 0 0 1 .499-.501l5.534-.014a.5.5 0 1 1 .002 1l-5.534.014a.5.5 0 0 1-.5-.5" clip-rule="evenodd"/><path fill="currentColor" fill-rule="evenodd" d="M7.926 4.665a.5.5 0 0 1 .501.498l.014 5.534a.5.5 0 1 1-1 .003l-.014-5.534a.5.5 0 0 1 .499-.501" clip-rule="evenodd"/><path fill="currentColor" fill-rule="evenodd" d="M12.832 3.03a6.931 6.931 0 1 0-9.802 9.802 6.931 6.931 0 0 0 9.802-9.802M2.323 2.323a7.931 7.931 0 0 1 11.296 11.136l4.628 4.628a.5.5 0 0 1-.707.707l-4.662-4.662A7.932 7.932 0 0 1 2.323 2.323" clip-rule="evenodd"/></symbol>

  <symbol id="icon-success" viewBox="0 0 13 13"><path fill="#428445" d="M6.5 12.35a5.85 5.85 0 1 0 0-11.7 5.85 5.85 0 0 0 0 11.7Z"/><path stroke="#fff" fill="none" d="m5.533 8.664 3.72-3.982M4.106 6.769l2.032 1.857"/></symbol>

  <symbol id="icon-truck" viewBox="0 0 20 20"><path d="M0 3.752c0-.277.224-.502.5-.502h10.147a.5.5 0 0 1 .5.502v9.91l-.595 1.003H7.223V13.66h2.923V4.253H1.002v9.408h1.682v1.004H.501A.5.5 0 0 1 0 14.163zm18.999 4.332-7.851-1.975V5.075l8.473 2.131a.5.5 0 0 1 .379.487v6.47a.5.5 0 0 1-.5.502h-2.193v-1.003H19zm-7.851 5.578h2.196v1.003h-2.792z"/><path d="M7.713 14.185a2.56 2.56 0 0 1-2.56 2.565 2.56 2.56 0 0 1-2.56-2.565 2.56 2.56 0 0 1 2.56-2.564 2.56 2.56 0 0 1 2.56 2.564m-2.56 1.562a1.56 1.56 0 0 0 1.558-1.562 1.56 1.56 0 0 0-1.559-1.56 1.56 1.56 0 0 0-1.558 1.56 1.56 1.56 0 0 0 1.558 1.562m12.368-1.562a2.56 2.56 0 0 1-2.56 2.565 2.56 2.56 0 0 1-2.56-2.565 2.56 2.56 0 0 1 2.56-2.564 2.56 2.56 0 0 1 2.56 2.564m-2.56 1.562a1.56 1.56 0 0 0 1.558-1.562 1.56 1.56 0 0 0-1.559-1.56 1.56 1.56 0 0 0-1.558 1.56 1.56 1.56 0 0 0 1.558 1.562"/></symbol>

  <symbol id="icon-unavailable" viewBox="0 0 20 20"><path fill="#DE3618" d="M13.94 3.94 10 7.878l-3.94-3.94A1.499 1.499 0 1 0 3.94 6.06L7.88 10l-3.94 3.94a1.499 1.499 0 1 0 2.12 2.12L10 12.12l3.94 3.94a1.497 1.497 0 0 0 2.12 0 1.5 1.5 0 0 0 0-2.12L12.122 10l3.94-3.94a1.499 1.499 0 1 0-2.121-2.12z"/></symbol>

  <symbol id="icon-check-mark" viewBox="0 0 20 20"><path fill-rule="evenodd" d="M18.5 1.5h-17v17h17zm-17-1a1 1 0 0 0-1 1v17a1 1 0 0 0 1 1h17a1 1 0 0 0 1-1v-17a1 1 0 0 0-1-1z"/><path d="M14.998 6.09a.5.5 0 0 1 .03.707l-6.112 6.666a.5.5 0 0 1-.733.004l-3.188-3.394a.5.5 0 0 1 .729-.685l2.82 3.002 5.746-6.27a.5.5 0 0 1 .707-.03"/></symbol>

  <symbol id="icon-info" viewBox="0 0 15 14"><path fill="currentColor" fill-opacity=".75" fill-rule="evenodd" d="M14.5 7a7 7 0 1 1-14 0 7 7 0 0 1 14 0m-7 6.174A6.174 6.174 0 1 0 7.5.826a6.174 6.174 0 0 0 0 12.348" clip-rule="evenodd"/><path fill="currentColor" fill-opacity=".75" fill-rule="evenodd" d="M8.192 3.554c0-.39-.276-.725-.69-.725-.41 0-.696.329-.696.725 0 .392.29.719.696.719.411 0 .69-.332.69-.72" clip-rule="evenodd"/><path fill="currentColor" fill-opacity=".75" d="M6.971 5.724a.33.33 0 0 1 .33-.33H7.7a.33.33 0 0 1 .33.33v5.123a.33.33 0 0 1-.33.33h-.397a.33.33 0 0 1-.33-.33z"/></symbol>

  <symbol id="icon-star" viewBox="0 0 20 20"><path fill-rule="evenodd" d="m10 2.626-1.46 4.71c-.192.62-.743 1.041-1.365 1.041H2.453l3.82 2.91a1.55 1.55 0 0 1 .522 1.685l-1.46 4.71 3.821-2.911a1.38 1.38 0 0 1 1.688 0l3.82 2.91-1.459-4.71c-.192-.62.019-1.3.522-1.683l3.82-2.911h-4.722c-.622 0-1.173-.42-1.366-1.04zm.455-1.78a.472.472 0 0 0-.91 0L7.63 7.027a.48.48 0 0 1-.455.347H.98c-.464 0-.657.622-.282.908l5.012 3.82a.52.52 0 0 1 .174.56l-1.914 6.18c-.143.462.361.847.736.56l5.013-3.818a.46.46 0 0 1 .562 0l5.013 3.819c.375.286.88-.099.736-.561l-1.914-6.18a.52.52 0 0 1 .174-.56l5.012-3.82c.375-.286.182-.908-.282-.908h-6.195a.48.48 0 0 1-.455-.347z"/></symbol>

  <symbol id="icon-eye" viewBox="0 0 20 20"><path d="M9.524 4.8c-2.761.13-5.44 1.82-8.352 4.865a.484.484 0 0 0 0 .67c2.911 3.044 5.59 4.736 8.352 4.865 2.75.13 5.743-1.286 9.298-4.86a.48.48 0 0 0 0-.68c-3.555-3.574-6.549-4.99-9.298-4.86m-.049-1.04c3.177-.15 6.44 1.503 10.081 5.164a1.526 1.526 0 0 1 0 2.152c-3.641 3.66-6.904 5.314-10.08 5.165-3.167-.149-6.085-2.08-9.053-5.185a1.53 1.53 0 0 1 0-2.112C3.391 5.84 6.31 3.907 9.475 3.76"/><path d="M13.58 10a3.564 3.564 0 0 1-3.568 3.559A3.564 3.564 0 0 1 6.443 10a3.564 3.564 0 0 1 3.569-3.558A3.564 3.564 0 0 1 13.581 10m-3.568 2.517A2.524 2.524 0 0 0 12.542 10a2.524 2.524 0 0 0-2.53-2.517A2.524 2.524 0 0 0 7.482 10a2.524 2.524 0 0 0 2.53 2.517"/></symbol>

  <symbol id="icon-padlock" viewBox="0 0 16 21"><path fill="currentColor" fill-rule="evenodd" d="M5.03 1.79A3.73 3.73 0 0 1 8 .5c1.28 0 2.28.48 2.97 1.29.67.8 1 1.87 1.03 3V7.5h3c.28 0 .5.22.5.5v12a.5.5 0 0 1-.5.5H1a.5.5 0 0 1-.5-.5V8c0-.28.22-.5.5-.5h3V4.8c0-1.1.36-2.15 1.03-3.01M11 6.4v1.09H5V4.82c.03-.99.31-1.82.8-2.4A2.75 2.75 0 0 1 8 1.49c1.01 0 1.73.37 2.2.93.49.58.77 1.41.8 2.4zM1.5 8.49v11h13v-11zm6.51 2.5a1.5 1.5 0 0 0-.7 2.82v2.5a.68.68 0 0 0 1.36 0v-2.47A1.5 1.5 0 0 0 8 11z" clip-rule="evenodd"/></symbol>

  <symbol id="icon-reset" viewBox="0 0 18 18"><circle cx="9" cy="9" r="8.5" stroke="currentColor" stroke-opacity=".2" fill="none"/><path stroke="currentColor" stroke-linecap="round" stroke-linejoin="round" fill="none" d="M11.83 11.83 6.172 6.17M6.229 11.885l5.544-5.77"/></symbol>

  <symbol id="icon-return" viewBox="0 0 20 20"><path d="M11.571 1.059c0-.309.249-.559.556-.559h1.33C17.07.5 20 3.453 20 7.09s-2.93 6.589-6.543 6.589L1.9 13.71l-.591-.59.59-.572 11.558.013c2.997 0 5.432-2.451 5.432-5.472 0-3.02-2.435-5.471-5.432-5.471h-1.33a.557.557 0 0 1-.556-.56"/><path d="M6.003 7.007a.553.553 0 0 1 .786.011.56.56 0 0 1-.012.79zM1.31 13.12l5.43 5.426a.56.56 0 0 1 0 .79.553.553 0 0 1-.785 0L.162 13.503a.56.56 0 0 1 .007-.796l3.035-2.965 2.8-2.735.773.801-2.798 2.736c-1.025 1-2.108 2.027-2.67 2.576"/></symbol>

  <symbol id="icon-clipboard" viewBox="0 0 20 20"><path d="M6.311 9.136a.25.25 0 0 1 .25-.25h7.185a.25.25 0 0 1 0 .5H6.561a.25.25 0 0 1-.25-.25M6.311 14.054a.25.25 0 0 1 .25-.25h6.878a.25.25 0 0 1 0 .5H6.561a.25.25 0 0 1-.25-.25M6.926 11.595a.25.25 0 0 1 .25-.25h5.648a.25.25 0 1 1 0 .5H7.176a.25.25 0 0 1-.25-.25M5.196 1.778a1.5 1.5 0 0 1 1.5-1.5h6.608a1.5 1.5 0 0 1 1.5 1.5v1.69a1.5 1.5 0 0 1-1.5 1.5H6.696a1.5 1.5 0 0 1-1.5-1.5zm1.5-.5a.5.5 0 0 0-.5.5v1.69a.5.5 0 0 0 .5.5h6.608a.5.5 0 0 0 .5-.5v-1.69a.5.5 0 0 0-.5-.5z"/><path d="M3.737 2.508v16.215h12.526V2.508h-1.765v-1h1.765a1 1 0 0 1 1 1v16.215a1 1 0 0 1-1 1H3.737a1 1 0 0 1-1-1V2.508a1 1 0 0 1 1-1H5.76v1z"/></symbol>

  <symbol id="icon-copy" viewBox="0 0 11 13"><path fill-rule="evenodd" clip-rule="evenodd" d="M2 1a1 1 0 011-1h7a1 1 0 011 1v9a1 1 0 01-1 1V1H2zM1 2a1 1 0 00-1 1v9a1 1 0 001 1h7a1 1 0 001-1V3a1 1 0 00-1-1H1zm0 10V3h7v9H1z" fill="currentColor"/></symbol>

  <symbol id="icon-tick" viewBox="0 0 20 20"><path fill="#108043" d="m16.136 6.979.003-.004a1.499 1.499 0 0 0-2.275-1.954l-5.945 6.777-1.858-1.859A1.499 1.499 0 1 0 3.94 12.06l2.999 3c.289.29.675.44 1.1.439h.019a1.5 1.5 0 0 0 1.08-.522z"/></symbol>

  <symbol id="icon-chat-bubble" viewBox="0 0 20 20"><path d="M5.8 10.243a1 1 0 1 1 2 0 1 1 0 0 1-2 0M9.23 10.243a1 1 0 1 1 2 0 1 1 0 0 1-2 0M12.66 10.243a1 1 0 1 1 2 0 1 1 0 0 1-2 0"/><path fill-rule="evenodd" d="m16.645 17.204-.008-.004a19 19 0 0 1-.767-.423c-.645-.367-1.263-.72-1.442-.598a7.472 7.472 0 1 1 2.05-2.082c-.134.202.192.843.533 1.513.147.29.297.584.414.85l.006.014c.193.443.293.808.136.944-.128.136-.488.006-.922-.214m1.614.936c-.38.372-.857.345-1.046.321a2.5 2.5 0 0 1-.626-.181 11 11 0 0 1-1.081-.56l-.132-.074c-.29-.166-.538-.307-.744-.408a8.472 8.472 0 1 1 2.877-2.902l.008.02c.092.22.226.483.385.795l.084.165c.178.353.388.774.516 1.146.063.181.131.42.143.669.01.225-.02.668-.384 1.009"/></symbol>

  <symbol id="icon-map-pin" viewBox="0 0 20 20"><path fill-rule="evenodd" d="m9.91 18.59 5.036-8.78c2.228-3.886-.525-8.777-4.942-8.777-4.385 0-7.147 4.822-4.992 8.713zM10.004 0C4.845 0 1.593 5.673 4.13 10.255l5.212 9.41a.64.64 0 0 0 1.12.009l5.358-9.342C18.445 5.755 15.202 0 10.004 0"/><path d="M13 6.796c0 1.76-1.399 3.187-3.124 3.187S6.752 8.556 6.752 6.796s1.399-3.187 3.124-3.187S13 5.036 13 6.796M9.876 8.949c1.166 0 2.11-.964 2.11-2.153s-.944-2.153-2.11-2.153-2.11.964-2.11 2.153.944 2.153 2.11 2.153"/></symbol>

  <symbol id="icon-price-tag" viewBox="0 0 20 20"><path fill-rule="evenodd" d="m1.162 11.842 6.93 6.987c.198.2.52.2.717 0l10.03-10.143a.5.5 0 0 0 .148-.36V1.531a.51.51 0 0 0-.507-.51h-7.093a.5.5 0 0 0-.358.15L1.162 11.12a.514.514 0 0 0 0 .722M20 1.532C20 .686 19.32 0 18.48 0h-7.093c-.403 0-.79.162-1.075.449L.445 10.398a1.54 1.54 0 0 0 0 2.167l6.93 6.986a1.51 1.51 0 0 0 2.151-.001l10.03-10.143A1.54 1.54 0 0 0 20 8.325z"/><path d="M15.903 8.23a2.86 2.86 0 0 1-4.066 0 2.915 2.915 0 0 1 0-4.1 2.86 2.86 0 0 1 4.066 0 2.915 2.915 0 0 1 0 4.1m-3.35-.723a1.85 1.85 0 0 0 2.633 0 1.89 1.89 0 0 0 0-2.654 1.85 1.85 0 0 0-2.633 0 1.89 1.89 0 0 0 0 2.654"/></symbol>

  <symbol id="icon-question-mark" viewBox="0 0 20 20"><path d="M9.563 11.959a.367.367 0 0 1-.367-.367v-.127c-.003-.49.084-.91.316-1.303.227-.384.575-.715 1.04-1.063.415-.311.666-.566.817-.81a1.43 1.43 0 0 0 .208-.795v-.013c0-.894-.657-1.531-1.568-1.531-.862 0-1.527.606-1.612 1.609a.37.37 0 0 1-.097.219l-.006.006a.37.37 0 0 1-.264.117l-.471.007a.367.367 0 0 1-.362-.453c.112-1.519 1.219-2.712 2.825-2.712 1.603 0 2.791 1.176 2.791 2.718v.013c0 .512-.114.965-.366 1.387-.248.416-.619.783-1.101 1.145l-.003.002c-.414.305-.637.526-.764.738-.12.2-.172.422-.172.771v.075a.367.367 0 0 1-.367.367zm1.142 2.423c0 .473-.335.88-.838.88-.497 0-.845-.4-.845-.88 0-.477.351-.874.845-.874.5 0 .838.403.838.874"/><path d="M18.5 10a8.5 8.5 0 1 1-17 0 8.5 8.5 0 0 1 17 0M10 17.497a7.497 7.497 0 1 0 0-14.994 7.497 7.497 0 0 0 0 14.994"/></symbol>

  <symbol id="icon-stopwatch" viewBox="0 0 20 20"><path d="M18.701 11.396a8.472 8.472 0 1 1-16.943 0 8.472 8.472 0 0 1 16.943 0m-8.471 7.472a7.472 7.472 0 1 0 0-14.944 7.472 7.472 0 0 0 0 14.944"/><path fill-rule="evenodd" d="M10.72 1.778h-.98a1 1 0 0 0-1 1v.147h2.98v-.147a1 1 0 0 0-1-1m-.98-1a2 2 0 0 0-2 2v1.147h4.98V2.778a2 2 0 0 0-2-2z"/><path d="M8.984 11.396a1.245 1.245 0 1 1 2.491 0 1.245 1.245 0 0 1-2.49 0"/><path d="M9.73 11.396a.5.5 0 0 1 .5-.5h4.98a.5.5 0 1 1 0 1h-4.98a.5.5 0 0 1-.5-.5m.5-5.481a.5.5 0 0 1 .5.5v2.49a.5.5 0 1 1-1 0v-2.49a.5.5 0 0 1 .5-.5m3.724 1.392a.5.5 0 0 1 0 .707l-1.76 1.761a.5.5 0 0 1-.708-.707l1.761-1.761a.5.5 0 0 1 .707 0"/></symbol>

  <symbol id="icon-ruler" viewBox="0 0 20 20"><path fill-rule="evenodd" d="M18.984 5.329 14.67 1.016 1.017 14.672l4.313 4.312zM15.39.298a1.016 1.016 0 0 0-1.437 0L.298 13.953a1.016 1.016 0 0 0 0 1.437l4.312 4.312c.397.397 1.04.397 1.437 0L19.702 6.047a1.016 1.016 0 0 0 0-1.437z"/><path d="M11.786 2.67a.51.51 0 0 1 .719 0l1.919 1.92a.508.508 0 1 1-.719.718l-1.919-1.919a.51.51 0 0 1 0-.718M8.939 5.363a.51.51 0 0 1 .719 0l1.918 1.919a.508.508 0 1 1-.718.719l-1.92-1.919a.51.51 0 0 1 0-.719M6.243 8.207a.51.51 0 0 1 .719 0l1.918 1.92a.508.508 0 0 1-.718.718L6.243 8.926a.51.51 0 0 1 0-.719m-2.87 2.671a.51.51 0 0 1 .719 0l1.918 1.918a.508.508 0 0 1-.718.719l-1.919-1.919a.51.51 0 0 1 0-.718"/></symbol>

  <symbol id="icon-inventory-status" viewBox="0 0 15 15"><circle cx="7.5" cy="7.5" r="7.5" fill="currentColor"/><circle cx="7.5" cy="7.5" r="5" fill="currentColor" stroke="#FFF"/></symbol>

  <!-- Social Icons -->
  <symbol id="icon-facebook" viewBox="0 0 20 20"><path fill="currentColor" d="M18 10.049C18 5.603 14.419 2 10 2s-8 3.603-8 8.049C2 14.067 4.925 17.396 8.75 18v-5.624H6.719v-2.328h2.03V8.275c0-2.017 1.195-3.132 3.023-3.132.874 0 1.79.158 1.79.158v1.98h-1.009c-.994 0-1.303.621-1.303 1.258v1.51h2.219l-.355 2.326H11.25V18c3.825-.604 6.75-3.933 6.75-7.951"/></symbol>

  <symbol id="icon-instagram" viewBox="0 0 20 20"><path fill="currentColor" fill-rule="evenodd" d="M13.23 3.492c-.84-.037-1.096-.046-3.23-.046-2.144 0-2.39.01-3.238.055-.776.027-1.195.164-1.487.273a2.4 2.4 0 0 0-.912.593 2.5 2.5 0 0 0-.602.922c-.11.282-.238.702-.274 1.486-.046.84-.046 1.095-.046 3.23s.01 2.39.046 3.229c.004.51.097 1.016.274 1.495.145.365.319.639.602.913.282.282.538.456.92.602.474.176.974.268 1.479.273.848.046 1.103.046 3.238.046s2.39-.01 3.23-.046c.784-.036 1.203-.164 1.486-.273.374-.146.648-.329.921-.602.283-.283.447-.548.602-.922.177-.476.27-.979.274-1.486.037-.84.046-1.095.046-3.23s-.01-2.39-.055-3.229c-.027-.784-.164-1.204-.274-1.495a2.4 2.4 0 0 0-.593-.913 2.6 2.6 0 0 0-.92-.602c-.284-.11-.703-.237-1.488-.273ZM6.697 2.05c.857-.036 1.131-.045 3.302-.045a63 63 0 0 1 3.302.045c.664.014 1.321.14 1.943.374a4 4 0 0 1 1.414.922c.41.397.728.88.93 1.414.23.622.354 1.279.365 1.942C18 7.56 18 7.824 18 10.005c0 2.17-.01 2.444-.046 3.292-.036.858-.173 1.442-.374 1.943-.2.53-.474.976-.92 1.423a3.9 3.9 0 0 1-1.415.922c-.51.191-1.095.337-1.943.374-.857.036-1.122.045-3.302.045-2.171 0-2.445-.009-3.302-.055-.849-.027-1.432-.164-1.943-.364a4.15 4.15 0 0 1-1.414-.922 4.1 4.1 0 0 1-.93-1.423c-.183-.51-.329-1.085-.365-1.943C2.009 12.45 2 12.167 2 10.004c0-2.161 0-2.435.055-3.302.027-.848.164-1.432.365-1.942a4.4 4.4 0 0 1 .92-1.414 4.2 4.2 0 0 1 1.415-.93c.51-.183 1.094-.33 1.943-.366Zm.427 4.806a4.105 4.105 0 1 1 5.805 5.805 4.105 4.105 0 0 1-5.805-5.805m1.882 5.371a2.668 2.668 0 1 0 2.042-4.93 2.668 2.668 0 0 0-2.042 4.93m5.922-5.942a.958.958 0 1 1-1.355-1.355.958.958 0 0 1 1.355 1.355" clip-rule="evenodd"/></symbol>

  <symbol id="icon-pinterest" viewBox="0 0 20 20"><path fill="currentColor" d="M10 2.01a8.1 8.1 0 0 1 5.666 2.353 8.09 8.09 0 0 1 1.277 9.68A7.95 7.95 0 0 1 10 18.04a8.2 8.2 0 0 1-2.276-.307c.403-.653.672-1.24.816-1.729l.567-2.2c.134.27.393.5.768.702.384.192.768.297 1.19.297q1.254 0 2.248-.72a4.7 4.7 0 0 0 1.537-1.969c.37-.89.554-1.848.537-2.813 0-1.249-.48-2.315-1.43-3.227a5.06 5.06 0 0 0-3.65-1.374c-.893 0-1.729.154-2.478.461a5.02 5.02 0 0 0-3.236 4.552c0 .72.134 1.355.413 1.902.269.538.672.922 1.22 1.152.096.039.182.039.25 0 .066-.028.114-.096.143-.192l.173-.653c.048-.144.02-.288-.105-.432a2.26 2.26 0 0 1-.548-1.565 3.803 3.803 0 0 1 3.976-3.861c1.047 0 1.863.288 2.44.855.585.576.883 1.315.883 2.228a6.8 6.8 0 0 1-.317 2.122 3.8 3.8 0 0 1-.893 1.556c-.384.384-.836.576-1.345.576-.413 0-.749-.144-1.018-.451-.259-.307-.345-.672-.25-1.085q.22-.77.452-1.537l.173-.701c.057-.25.086-.451.086-.624 0-.346-.096-.634-.269-.855-.192-.22-.451-.336-.797-.336-.432 0-.797.192-1.085.595-.288.394-.442.893-.442 1.499.005.374.063.746.173 1.104l.058.144c-.576 2.478-.913 3.938-1.037 4.36-.116.528-.154 1.153-.125 1.863A8.07 8.07 0 0 1 2 10.03c0-2.208.778-4.11 2.343-5.666A7.72 7.72 0 0 1 10 2.001z"/></symbol>

  <symbol id="icon-twitter" viewBox="0 0 20 20"><path fill="currentColor" fill-rule="evenodd" d="M7.273 2.8 10.8 7.822 15.218 2.8h1.768l-5.4 6.139 5.799 8.254h-4.658l-3.73-5.31-4.671 5.31H2.558l5.654-6.427L2.615 2.8zm6.242 13.125L5.07 4.109h1.405l8.446 11.816z" clip-rule="evenodd"/></symbol>

  <symbol id="icon-youtube" viewBox="0 0 20 20"><path fill="currentColor" d="M18.16 5.87c.34 1.309.34 4.08.34 4.08s0 2.771-.34 4.08a2.13 2.13 0 0 1-1.53 1.53c-1.309.34-6.63.34-6.63.34s-5.321 0-6.63-.34a2.13 2.13 0 0 1-1.53-1.53c-.34-1.309-.34-4.08-.34-4.08s0-2.771.34-4.08a2.17 2.17 0 0 1 1.53-1.53C4.679 4 10 4 10 4s5.321 0 6.63.34a2.17 2.17 0 0 1 1.53 1.53M8.3 12.5l4.42-2.55L8.3 7.4z"/></symbol>

  <symbol id="icon-tiktok" viewBox="0 0 20 20"><path fill="currentColor" d="M10.511 1.705h2.74s-.157 3.51 3.795 3.768v2.711s-2.114.129-3.796-1.158l.028 5.606A5.073 5.073 0 1 1 8.213 7.56h.708v2.785a2.298 2.298 0 1 0 1.618 2.205z"/></symbol>

  <symbol id="icon-snapchat" viewBox="0 0 20 20"><path fill="currentColor" fill-rule="evenodd" d="M17.388 15.396a5 5 0 0 1-1.111.445c-.074.23-.236.564-.596.813a1.9 1.9 0 0 1-.9.308c-.14.015-.313.021-.443.026l-.092.004c-.317.014-.624.042-.958.154l-.002.001a1.7 1.7 0 0 0-.331.168l-.138.085c-.14.087-.33.205-.497.298a4.6 4.6 0 0 1-2.321.602 4.55 4.55 0 0 1-2.315-.602c-.164-.091-.355-.21-.495-.297l-.14-.086a2 2 0 0 0-.338-.172 3.4 3.4 0 0 0-.96-.154l-.09-.003c-.13-.006-.304-.013-.445-.027-.15-.016-.541-.06-.9-.31a1.56 1.56 0 0 1-.593-.809 4.8 4.8 0 0 1-1.112-.446 1.9 1.9 0 0 1-.628-.535 1.44 1.44 0 0 1-.21-1.306 1.5 1.5 0 0 1 .53-.724c.137-.104.27-.17.323-.196 1.23-.604 1.77-1.38 1.996-1.833l-.18-.118c-.167-.11-.342-.223-.438-.291-.252-.178-.572-.449-.779-.85a1.8 1.8 0 0 1-.087-1.473l.002-.005c.344-.922 1.2-1.14 1.704-1.14h.07q.005-.335.033-.678A4.6 4.6 0 0 1 6.132 3.35l.007-.007a5.1 5.1 0 0 1 1.773-1.247 5.1 5.1 0 0 1 2.108-.394c2.272.008 3.522 1.273 3.855 1.655a4.6 4.6 0 0 1 1.176 2.884c.019.227.028.456.032.678h.088c.521.005 1.346.242 1.684 1.133l.005.012a1.8 1.8 0 0 1-.09 1.477c-.209.401-.531.672-.786.85a19 19 0 0 1-.402.267l-.209.138c.224.45.76 1.226 1.994 1.827l.01.004.008.004c.056.029.188.097.325.203.12.093.388.323.52.724.16.493.028.963-.207 1.292a1.9 1.9 0 0 1-.627.541z" clip-rule="evenodd"/></symbol>

  <symbol id="icon-tumblr" viewBox="0 0 20 20"><path fill="currentColor" fill-rule="evenodd" d="M11.997 18c-2.26 0-3.954-1.235-3.954-4.198V9.061H6V6.489C8.26 5.867 9.201 3.787 9.314 2h2.344v4.068h2.73V9.06h-2.73v4.128c0 1.235.584 1.667 1.516 1.667h1.318V18z" clip-rule="evenodd"/></symbol>

  <symbol id="icon-vimeo" viewBox="0 0 20 20"><path fill="currentColor" fill-rule="evenodd" d="M17.995 7.002C17.92 8.457 16.9 10.451 14.935 13c-2.039 2.653-3.763 3.988-5.187 3.988q-1.305 0-2.205-2.429L6.33 10.121q-.675-2.43-1.44-2.43c-.12 0-.51.24-1.184.706L3 7.497l2.19-1.95c.989-.869 1.724-1.319 2.218-1.349 1.17-.135 1.89.66 2.16 2.37.3 1.844.495 2.998.6 3.448.344 1.53.704 2.294 1.11 2.294.314 0 .794-.495 1.424-1.5.49-.67.832-1.436 1.004-2.249.09-.87-.255-1.304-1.004-1.304-.36 0-.735.09-1.11.255.735-2.414 2.144-3.584 4.213-3.509 1.545.045 2.265 1.05 2.19 3Z" clip-rule="evenodd"/></symbol>
</svg>
